<svg width="378" height="296" viewBox="0 0 378 296" fill="none" xmlns="http://www.w3.org/2000/svg">
<path d="M306.012 295.707C301.292 295.706 296.577 295.382 291.9 294.739C269.725 291.686 248.834 282.957 228.611 274.514C221.847 271.684 214.832 268.756 207.894 266.09C167.768 250.698 125.33 242.217 82.3779 241.008C79.7352 240.93 77.0876 240.877 74.4352 240.829C61.8353 240.582 48.8054 240.345 36.476 237.137C19.4023 232.71 6.47868 222.622 1.9083 210.168C-5.58016 189.759 10.0876 167.459 29.4465 155.977C40.1333 149.634 52.1244 145.284 63.7146 141.084C72.9858 137.722 82.5566 134.248 91.422 129.772C118.96 115.847 139.575 92.4434 159.504 69.8091L162.886 65.9384C184.071 41.9349 207.334 17.52 238.278 5.8739C248.794 1.97732 259.918 -0.0116963 271.131 5.17389e-05C295.886 5.17389e-05 317.337 9.72533 328.516 26.0115C341.174 44.4605 339.778 67.0706 338.425 88.9404C337.618 102.004 336.783 115.523 338.87 128.219C341.653 145.153 349.764 160.985 357.61 176.313C360.702 182.356 363.891 188.608 366.736 194.849C375.611 214.387 383.477 242.421 370.519 265.007C359.697 283.949 334.966 295.707 306.012 295.707ZM271.164 1.52899C260.117 1.51288 249.156 3.47088 238.795 7.31094C208.179 18.8361 185.057 43.1154 163.992 66.9641L160.611 70.8349C140.59 93.5756 119.888 117.09 92.0838 131.141C83.1556 135.656 73.527 139.144 64.2123 142.521C52.6849 146.702 40.7614 151.027 30.1954 157.298C11.3534 168.465 -3.90377 190.049 3.30448 209.693C7.70576 221.693 20.2478 231.428 36.848 235.734C49.0083 238.889 61.9706 239.121 74.4642 239.382C77.1214 239.435 79.7786 239.484 82.4213 239.561C125.539 240.769 168.142 249.275 208.426 264.721C215.387 267.392 222.402 270.324 229.2 273.159C249.313 281.564 270.116 290.258 292.098 293.287C296.707 293.926 301.354 294.249 306.007 294.255C328.284 294.255 356.596 286.393 369.258 264.329C381.921 242.266 374.148 214.75 365.393 195.531C362.572 189.319 359.379 183.087 356.296 177.058C348.402 161.633 340.237 145.681 337.416 128.529C335.299 115.668 336.14 102.067 336.932 88.9162C338.329 66.3061 339.648 44.9492 327.27 26.9211C316.424 10.993 295.432 1.50964 271.164 1.50964V1.52899Z" fill="#6A1AB7"/>
</svg>
