<svg width="20" height="20" viewBox="0 0 20 20" fill="none" xmlns="http://www.w3.org/2000/svg">
<path d="M4.99772 12.1384L3.63104 18.0564C3.58872 18.2356 3.60143 18.4234 3.6675 18.5953C3.73357 18.7671 3.84993 18.9151 4.00139 19.0198C4.15285 19.1245 4.33237 19.1811 4.5165 19.1822C4.70062 19.1833 4.8808 19.1288 5.03349 19.0259L10.0278 15.6964L15.0222 19.0259C15.1784 19.1297 15.3627 19.1831 15.5502 19.1789C15.7377 19.1748 15.9194 19.1134 16.0709 19.0029C16.2225 18.8924 16.3365 18.7382 16.3978 18.5609C16.4591 18.3837 16.4646 18.1919 16.4136 18.0115L14.736 12.1412L18.8966 8.39701C19.0298 8.27702 19.125 8.12061 19.1703 7.94712C19.2156 7.77362 19.209 7.59065 19.1515 7.42083C19.0939 7.25102 18.9878 7.1018 18.8463 6.99164C18.7048 6.88148 18.5342 6.81521 18.3554 6.80102L13.1263 6.3846L10.8634 1.37558C10.7913 1.21429 10.674 1.07733 10.5257 0.981225C10.3774 0.885122 10.2045 0.833984 10.0278 0.833984C9.85114 0.833984 9.67822 0.885122 9.52995 0.981225C9.38168 1.07733 9.26439 1.21429 9.19223 1.37558L6.92942 6.3846L1.70027 6.8001C1.52457 6.81402 1.35661 6.87826 1.21647 6.98514C1.07634 7.09201 0.969957 7.237 0.910062 7.40275C0.850167 7.56851 0.839292 7.748 0.87874 7.91977C0.918188 8.09154 1.00629 8.24831 1.1325 8.37133L4.99772 12.1384V12.1384ZM7.61459 8.17045C7.77831 8.15755 7.93555 8.10085 8.06982 8.00628C8.20408 7.91171 8.31044 7.78276 8.37773 7.63295L10.0278 3.98144L11.6779 7.63295C11.7452 7.78276 11.8516 7.91171 11.9858 8.00628C12.1201 8.10085 12.2774 8.15755 12.4411 8.17045L16.0843 8.45938L13.0841 11.1597C12.8236 11.3945 12.7199 11.7559 12.8153 12.0935L13.9646 16.1155L10.5378 13.8307C10.3874 13.7298 10.2104 13.6758 10.0292 13.6758C9.84806 13.6758 9.67101 13.7298 9.5206 13.8307L5.93972 16.2183L6.90282 12.0485C6.93813 11.8952 6.93339 11.7353 6.88906 11.5843C6.84472 11.4333 6.76228 11.2962 6.64966 11.1863L3.8631 8.46947L7.61459 8.17045V8.17045Z" fill="#F3CD03"/>
</svg>
