<svg width="20" height="20" viewBox="0 0 20 20" fill="none" xmlns="http://www.w3.org/2000/svg">
<path d="M19.1364 7.41866C19.0788 7.24885 18.9727 7.09964 18.8312 6.98945C18.6897 6.87926 18.519 6.81292 18.3403 6.79861L13.1111 6.3831L10.8483 1.37409C10.7762 1.21276 10.659 1.07573 10.5108 0.979546C10.3626 0.883361 10.1897 0.832128 10.013 0.832031C9.8363 0.831934 9.66336 0.882977 9.51503 0.978999C9.3667 1.07502 9.24934 1.21192 9.1771 1.37317L6.91428 6.3831L1.68513 6.79861C1.50944 6.81253 1.34148 6.87677 1.20134 6.98364C1.0612 7.09052 0.95482 7.23551 0.894925 7.40126C0.83503 7.56701 0.824156 7.74651 0.863603 7.91828C0.903051 8.09005 0.99115 8.24682 1.11736 8.36983L4.98167 12.1369L3.61499 18.0549C3.57349 18.234 3.58679 18.4215 3.65316 18.593C3.71954 18.7645 3.83592 18.9121 3.9872 19.0166C4.13849 19.1211 4.3177 19.1777 4.50157 19.1791C4.68545 19.1805 4.8655 19.1266 5.01836 19.0244L10.0127 15.6949L15.007 19.0244C15.1633 19.1282 15.3475 19.1816 15.535 19.1774C15.7225 19.1733 15.9043 19.1119 16.0558 19.0014C16.2073 18.8909 16.3214 18.7367 16.3827 18.5595C16.4439 18.3822 16.4495 18.1904 16.3985 18.01L14.7209 12.1397L18.8814 8.39551C19.1539 8.1497 19.2538 7.76629 19.1364 7.41866Z" fill="#F3CD03"/>
</svg>
