<svg width="16" height="16" viewBox="0 0 16 16" fill="none" xmlns="http://www.w3.org/2000/svg">
<path d="M0.5 9.90039C0.632608 9.90039 0.759785 9.95307 0.853553 10.0468C0.947322 10.1406 1 10.2678 1 10.4004V12.9004C1 13.1656 1.10536 13.42 1.29289 13.6075C1.48043 13.795 1.73478 13.9004 2 13.9004H14C14.2652 13.9004 14.5196 13.795 14.7071 13.6075C14.8946 13.42 15 13.1656 15 12.9004V10.4004C15 10.2678 15.0527 10.1406 15.1464 10.0468C15.2402 9.95307 15.3674 9.90039 15.5 9.90039C15.6326 9.90039 15.7598 9.95307 15.8536 10.0468C15.9473 10.1406 16 10.2678 16 10.4004V12.9004C16 13.4308 15.7893 13.9395 15.4142 14.3146C15.0391 14.6897 14.5304 14.9004 14 14.9004H2C1.46957 14.9004 0.960859 14.6897 0.585786 14.3146C0.210714 13.9395 0 13.4308 0 12.9004V10.4004C0 10.2678 0.0526784 10.1406 0.146447 10.0468C0.240215 9.95307 0.367392 9.90039 0.5 9.90039Z" fill="#737373"/>
<path d="M7.64614 11.854C7.69259 11.9006 7.74776 11.9375 7.80851 11.9627C7.86926 11.9879 7.93438 12.0009 8.00014 12.0009C8.06591 12.0009 8.13103 11.9879 8.19178 11.9627C8.25252 11.9375 8.3077 11.9006 8.35414 11.854L11.3541 8.854C11.448 8.76011 11.5008 8.63278 11.5008 8.5C11.5008 8.36722 11.448 8.23989 11.3541 8.146C11.2603 8.05211 11.1329 7.99937 11.0001 7.99937C10.8674 7.99937 10.74 8.05211 10.6461 8.146L8.50014 10.293V1.5C8.50014 1.36739 8.44747 1.24021 8.3537 1.14645C8.25993 1.05268 8.13275 1 8.00014 1C7.86754 1 7.74036 1.05268 7.64659 1.14645C7.55282 1.24021 7.50014 1.36739 7.50014 1.5V10.293L5.35414 8.146C5.26026 8.05211 5.13292 7.99937 5.00014 7.99937C4.86737 7.99937 4.74003 8.05211 4.64614 8.146C4.55226 8.23989 4.49951 8.36722 4.49951 8.5C4.49951 8.63278 4.55226 8.76011 4.64614 8.854L7.64614 11.854Z" fill="#737373"/>
</svg>
