<svg width="73" height="72" viewBox="0 0 73 72" fill="none" xmlns="http://www.w3.org/2000/svg">
<path d="M0.5 36C0.5 16.1178 16.6178 0 36.5 0C56.3823 0 72.5 16.1178 72.5 36C72.5 55.8823 56.3823 72 36.5 72C16.6178 72 0.5 55.8823 0.5 36Z" fill="#FFF2F3"/>
<g clip-path="url(#clip0_2_138)">
<g clip-path="url(#clip1_2_138)">
<path d="M36.4909 24.218C29.5159 18.1173 20.6472 23.4776 20.5018 30.7442C20.4647 32.5961 20.9993 34.4 22.0634 36.0631H28.9607L30.1874 34.0184C30.5437 33.4247 31.4057 33.4056 31.7821 33.9974L34.3705 38.0648L38.1435 30.0997C38.4726 29.4047 39.4532 29.3827 39.8161 30.0566L43.0503 36.0631H50.9184C56.7468 26.9538 45.2279 16.5764 36.4909 24.218Z" fill="#E74040"/>
<path d="M41.6651 37.4453L39.0443 32.5781L35.3382 40.4019C35.0229 41.0675 34.0956 41.1253 33.7002 40.5039L31.0148 36.284L30.2952 37.4832C30.1258 37.7655 29.8207 37.9383 29.4914 37.9383H23.5464C23.7327 38.1333 22.7395 37.1421 35.8297 50.1645C36.1953 50.5283 36.7863 50.5283 37.152 50.1645C50.0407 37.3424 49.2493 38.133 49.4353 37.9383H42.4904C42.1455 37.9383 41.8286 37.749 41.6651 37.4453Z" fill="#E74040"/>
</g>
</g>
<defs>
<clipPath id="clip0_2_138">
<rect width="32" height="32" fill="white" transform="translate(20.5 20)"/>
</clipPath>
<clipPath id="clip1_2_138">
<rect width="32" height="32" fill="white" transform="translate(20.5 20)"/>
</clipPath>
</defs>
</svg>
