<svg width="666" height="445" viewBox="0 0 666 445" fill="none" xmlns="http://www.w3.org/2000/svg">
<path d="M415.364 444.717C390.268 444.717 366.251 427.641 343.033 411.126C332.91 403.918 322.435 396.477 312.105 390.639C274.737 369.51 232.207 367.74 191.923 367.74C185.531 367.74 179.14 367.796 172.748 367.844C166.356 367.892 159.9 367.949 153.485 367.949C127.614 367.949 100.042 367.148 73.6276 361.125C46.5905 354.982 26.4164 343.961 13.7048 328.359C-2.27463 308.801 -4.57582 280.728 8.35953 263.052C21.7343 244.775 44.9525 241.267 67.4116 237.879C85.1887 235.196 103.573 232.425 117.675 222.549C138.696 207.836 146.134 180.413 150.273 158.171C150.888 154.84 151.479 151.492 152.071 148.12C155.834 126.647 159.717 104.454 172.34 86.561C182.431 72.2565 200.153 62.6455 216.42 62.6455C224.584 62.5138 232.538 65.2415 238.911 70.3584C249.385 78.9282 253.74 92.4477 257.95 105.527C262.592 119.943 266.987 133.559 278.875 140.887C283.297 143.665 288.406 145.144 293.624 145.156C315.236 145.156 336.769 120.216 343.312 96.9248C345.334 89.7166 346.956 82.0758 348.53 74.6673C353.547 51.0161 358.74 26.556 377.468 11.6829C386.952 4.15421 398.393 0.341797 411.488 0.341797C433.668 0.341797 459.155 11.779 478.019 30.2002C489.66 41.5652 499.687 54.7804 509.394 67.5551C521.619 83.6536 534.258 100.305 550.142 113.152C562.782 123.395 577.459 131.212 591.649 138.781C601.812 144.195 612.326 149.794 622.081 156.265C635.704 165.308 667.247 190.128 665.833 225.216C664.147 266.864 618.286 289.723 598.647 297.62C591.768 300.383 584.594 302.986 577.659 305.501C552.379 314.655 526.245 324.122 508.26 343.857C497.634 355.518 490.003 370.6 482.621 385.184C470.317 409.492 458.7 432.439 434.323 441.353C428.249 443.58 421.831 444.719 415.364 444.717ZM191.923 365.273C232.567 365.273 275.424 367.068 313.311 388.5C323.754 394.403 334.276 401.884 344.471 409.124C367.377 425.415 391.067 442.258 415.38 442.258C421.544 442.258 427.661 441.174 433.452 439.054C456.91 430.484 468.319 407.947 480.4 384.087C487.854 369.358 495.58 354.125 506.414 342.215C524.791 322.032 551.228 312.461 576.796 303.202C583.715 300.695 590.865 298.108 597.705 295.353C616.88 287.632 661.718 265.335 663.348 225.136C664.722 191.305 633.978 167.158 620.699 158.34C611.048 151.932 600.589 146.326 590.474 140.976C576.18 133.359 561.4 125.494 548.576 115.098C532.501 102.067 519.765 85.2955 507.453 69.0768C497.809 56.3742 487.83 43.2392 476.293 32.0022C457.877 14.0216 433.045 2.84868 411.48 2.84868C398.953 2.84868 388.023 6.48487 378.986 13.6611C360.954 27.9816 355.856 51.9932 350.926 75.2199C349.328 82.6685 347.731 90.3813 345.669 97.6457C338.91 121.673 317.09 147.671 293.616 147.671C287.944 147.663 282.389 146.059 277.581 143.042C264.909 135.257 260.171 120.56 255.593 106.336C251.495 93.601 247.252 80.4259 237.337 72.3206C231.403 67.5642 224 65.0321 216.404 65.1604C200.888 65.1604 183.981 74.3549 174.33 88.0346C162.026 105.471 158.183 127.392 154.475 148.592C153.884 151.964 153.293 155.328 152.67 158.668C148.451 181.374 140.813 209.39 119.065 224.616C104.492 234.819 85.8199 237.639 67.7631 240.362C44.7927 243.83 23.1007 247.106 10.3332 264.55C-3.67281 283.684 2.591 310.923 15.5983 326.837C27.9903 342.007 47.709 352.739 74.1949 358.754C100.369 364.697 127.782 365.514 153.509 365.514C159.901 365.514 166.34 365.458 172.748 365.41C179.156 365.362 185.555 365.273 191.923 365.273Z" fill="white"/>
</svg>
