<svg width="72" height="72" viewBox="0 0 72 72" fill="none" xmlns="http://www.w3.org/2000/svg">
<path d="M0 36C0 16.1178 16.1178 0 36 0C55.8823 0 72 16.1178 72 36C72 55.8823 55.8823 72 36 72C16.1178 72 0 55.8823 0 36Z" fill="#FFF2F3"/>
<g clip-path="url(#clip0_2_149)">
<g clip-path="url(#clip1_2_149)">
<path d="M26.3485 51.9993H45.6518C46.8004 51.9993 47.7567 51.1208 47.7567 50.0411V26.6278C47.7567 25.5479 46.8004 24.6602 45.6518 24.6602H42.4697V26.4479C42.4744 26.7583 42.2295 27.015 41.9195 27.0254H30.0431C29.7268 27.0178 29.4714 26.7642 29.461 26.4479V24.6602H26.3485C25.1999 24.6602 24.2437 25.5479 24.2437 26.6278V50.0411C24.2437 51.1208 25.1999 51.9993 26.3485 51.9993ZM30.6437 34.0515C30.6437 33.7441 30.8928 33.4949 31.2002 33.4949H34.0523V30.6428C34.0523 30.3354 34.3015 30.0862 34.6089 30.0862H37.3915C37.6988 30.0862 37.948 30.3354 37.948 30.6428V33.4949H40.8002C41.1075 33.4949 41.3567 33.7441 41.3567 34.0515V36.8341C41.3567 37.1414 41.1075 37.3906 40.8002 37.3906H37.948V40.2428C37.948 40.5501 37.6988 40.7993 37.3915 40.7993H34.6089C34.3015 40.7993 34.0523 40.5501 34.0523 40.2428V37.3906H31.2002C30.8928 37.3906 30.6437 37.1414 30.6437 36.8341V34.0515ZM30.8703 43.6515H41.1301C41.4377 43.6515 41.6866 43.9006 41.6866 44.208C41.6866 44.5153 41.4377 44.7645 41.1301 44.7645H30.8703C30.5627 44.7645 30.3138 44.5153 30.3138 44.208C30.3138 43.9006 30.5627 43.6515 30.8703 43.6515ZM28.7833 46.4341H43.217C43.5246 46.4341 43.7735 46.6833 43.7735 46.9906C43.7735 47.2979 43.5246 47.5471 43.217 47.5471H28.7833C28.4757 47.5471 28.2268 47.2979 28.2268 46.9906C28.2268 46.6833 28.4757 46.4341 28.7833 46.4341Z" fill="#E74040"/>
<path d="M41.3563 22.1565H38.752C38.49 22.1563 38.2634 21.9734 38.2082 21.7171C37.993 20.7226 37.0485 20 35.962 20H35.9553C34.8979 19.9989 33.9743 20.7144 33.7112 21.7383C33.6479 21.9842 33.4262 22.1563 33.1721 22.1565H30.5737V25.913H41.3563V22.1565Z" fill="#E74040"/>
<path d="M35.165 36.834V39.6862H36.8346V36.834C36.8346 36.5267 37.0838 36.2775 37.3911 36.2775H40.2433V34.6079H37.3911C37.0838 34.6079 36.8346 34.3587 36.8346 34.0514V31.1992H35.165V34.0514C35.165 34.3587 34.9159 34.6079 34.6085 34.6079H31.7563V36.2775H34.6085C34.9159 36.2775 35.165 36.5267 35.165 36.834Z" fill="#E74040"/>
</g>
</g>
<defs>
<clipPath id="clip0_2_149">
<rect width="32" height="32" fill="white" transform="translate(20 20)"/>
</clipPath>
<clipPath id="clip1_2_149">
<rect width="32" height="32" fill="white" transform="translate(20 20)"/>
</clipPath>
</defs>
</svg>
