<svg width="40" height="40" viewBox="0 0 40 40" fill="none" xmlns="http://www.w3.org/2000/svg">
<path d="M0 20C0 8.95431 8.95431 0 20 0C31.0457 0 40 8.95431 40 20C40 31.0457 31.0457 40 20 40C8.95431 40 0 31.0457 0 20Z" fill="white"/>
<path d="M20.0011 15.9532L18.6367 14.5566L18.6362 14.556C18.2883 14.2018 17.8733 13.9204 17.4154 13.7283C16.9576 13.5362 16.466 13.4372 15.9695 13.4372C15.4729 13.4372 14.9814 13.5362 14.5235 13.7283C14.0657 13.9203 13.6508 14.2017 13.3029 14.5559C12.5889 15.2808 12.1887 16.2575 12.1887 17.275C12.1887 18.2926 12.589 19.2693 13.3031 19.9943L13.3034 19.9946L19.7784 26.5508L20.0007 26.776L20.2231 26.5508L26.6981 19.9946L26.6983 19.9943C27.4124 19.2693 27.8127 18.2926 27.8127 17.275C27.8127 16.2575 27.4125 15.2809 26.6986 14.5559C26.3509 14.2015 25.9359 13.92 25.4781 13.7279C25.0203 13.5359 24.5288 13.4372 24.0324 13.4375C24.0322 13.4375 24.0319 13.4375 24.0317 13.4375L24.032 13.75M20.0011 15.9532L21.3581 14.5695L21.3588 14.5687L21.582 14.7875M20.0011 15.9532L21.3572 14.5704M20.0011 15.9532L21.3572 14.5704M24.032 13.75C23.5748 13.7493 23.1222 13.8409 22.7013 14.0192C22.2803 14.1974 21.8996 14.4587 21.582 14.7875M24.032 13.75C24.487 13.7496 24.9376 13.8401 25.3572 14.0161C25.7768 14.1921 26.1571 14.4501 26.4757 14.775L24.032 13.75ZM21.582 14.7875L21.3572 14.5704M21.582 14.7875L21.3572 14.5704M24.0317 12.8125L24.0319 12.8125C24.6118 12.8127 25.1858 12.9283 25.7206 13.1526C26.2554 13.3769 26.7401 13.7054 27.1466 14.119C27.9755 14.9629 28.4399 16.0984 28.4399 17.2813C28.4399 18.4639 27.9756 19.5993 27.147 20.4431C27.1468 20.4432 27.1467 20.4434 27.1465 20.4435L20.0007 27.6802L12.8549 20.4435C12.8548 20.4434 12.8547 20.4433 12.8546 20.4432C12.0259 19.5994 11.5615 18.464 11.5615 17.2813C11.5615 16.0985 12.0259 14.9629 12.8548 14.1191C13.2613 13.7058 13.7461 13.3774 14.2809 13.1533C14.8156 12.9292 15.3896 12.8138 15.9695 12.8138C16.5493 12.8138 17.1233 12.9292 17.658 13.1533C18.1928 13.3774 18.6776 13.7058 19.0842 14.1191L19.085 14.12L19.7788 14.82L20.0007 15.0439L20.2227 14.82L20.9164 14.12L20.9176 14.1188C21.3236 13.7047 21.8082 13.3759 22.3429 13.1516C22.8777 12.9273 23.4518 12.812 24.0317 12.8125Z" fill="#BDBDBD" stroke="#252B42" stroke-width="0.625"/>
</svg>
