<svg width="23" height="23" viewBox="0 0 23 23" fill="none" xmlns="http://www.w3.org/2000/svg">
<path d="M17.8483 12.3517C17.737 12.2402 17.6047 12.1517 17.4592 12.0913C17.3136 12.031 17.1575 11.9999 16.9999 11.9999C16.8423 11.9999 16.6863 12.031 16.5407 12.0913C16.3951 12.1517 16.2629 12.2402 16.1515 12.3517L14.2388 14.2645C13.352 14.0005 11.6972 13.4005 10.6484 12.3517C9.59961 11.3029 8.99962 9.64814 8.73562 8.76135L10.6484 6.84857C10.7599 6.73723 10.8484 6.60498 10.9088 6.45941C10.9692 6.31383 11.0002 6.15778 11.0002 6.00018C11.0002 5.84258 10.9692 5.68653 10.9088 5.54095C10.8484 5.39538 10.7599 5.26313 10.6484 5.15179L5.84845 0.351838C5.73711 0.240304 5.60486 0.151819 5.45929 0.0914472C5.31371 0.031075 5.15766 0 5.00006 0C4.84246 0 4.68641 0.031075 4.54083 0.0914472C4.39526 0.151819 4.26301 0.240304 4.15167 0.351838L0.897301 3.60621C0.441305 4.0622 0.184508 4.68859 0.194108 5.32819C0.221707 7.03697 0.674103 12.9721 5.35166 17.6497C10.0292 22.3272 15.9644 22.7784 17.6743 22.8072H17.7079C18.3415 22.8072 18.9403 22.5576 19.3939 22.104L22.6483 18.8497C22.7598 18.7383 22.8483 18.6061 22.9087 18.4605C22.969 18.3149 23.0001 18.1589 23.0001 18.0013C23.0001 17.8437 22.969 17.6876 22.9087 17.542C22.8483 17.3965 22.7598 17.2642 22.6483 17.1529L17.8483 12.3517ZM17.6959 20.406C16.1983 20.3808 11.0744 19.9788 7.04844 15.9517C3.00928 11.9125 2.61808 6.77057 2.59408 5.30299L5.00006 2.89701L8.10323 6.00018L6.55164 7.55177C6.4106 7.6927 6.3069 7.86657 6.24991 8.05764C6.19292 8.24872 6.18445 8.45098 6.22525 8.64615C6.25405 8.78415 6.95844 12.0565 8.95042 14.0485C10.9424 16.0405 14.2148 16.7449 14.3528 16.7737C14.5478 16.8156 14.7503 16.8078 14.9415 16.751C15.1328 16.6942 15.3067 16.5901 15.4472 16.4485L16.9999 14.8969L20.1031 18.0001L17.6959 20.406Z" fill="#8D5CF6"/>
</svg>
