<svg width="35" height="36" viewBox="0 0 35 36" fill="none" xmlns="http://www.w3.org/2000/svg">
<path d="M17.8682 35.258C13.3313 35.2528 8.98157 33.4456 5.77349 30.2328C2.56541 27.0199 0.760974 22.6638 0.755859 18.1202C0.760974 13.5765 2.56541 9.22044 5.77349 6.0076C8.98157 2.79475 13.3313 0.987544 17.8682 0.982422C22.4084 0.982419 26.763 2.78737 29.9752 6.00077C33.1875 9.21418 34.9947 13.5732 34.9998 18.1202C34.9947 22.6672 33.1875 27.0262 29.9752 30.2396C26.763 33.453 22.4084 35.258 17.8682 35.258ZM17.8682 2.47264C13.7259 2.47776 9.75475 4.128 6.82573 7.06137C3.89671 9.99474 2.24892 13.9718 2.24381 18.1202C2.24892 22.2686 3.89671 26.2456 6.82573 29.179C9.75475 32.1124 13.7259 33.7626 17.8682 33.7677C22.0104 33.7626 25.9816 32.1124 28.9106 29.179C31.8396 26.2456 33.4873 22.2686 33.4924 18.1202C33.4873 13.9718 31.8396 9.99474 28.9106 7.06137C25.9816 4.128 22.0104 2.47776 17.8682 2.47264V2.47264Z" fill="#6A1AB7"/>
</svg>
