<svg width="93" height="93" viewBox="0 0 93 93" fill="none" xmlns="http://www.w3.org/2000/svg">
<path d="M0 46.3C0 20.7292 20.7292 0 46.3 0C71.8708 0 92.6 20.7292 92.6 46.3C92.6 71.8708 71.8708 92.6 46.3 92.6C20.7292 92.6 0 71.8708 0 46.3Z" fill="#8D5CF6"/>
<g clip-path="url(#clip0_2_125)">
<path d="M54.5396 47.7028L39.4282 56.7265C38.1458 57.4915 36.5 56.5652 36.5 55.0229V36.9757C36.5 35.4359 38.1434 34.5071 39.4282 35.2746L54.5396 44.2982C54.8313 44.4696 55.0738 44.7173 55.2425 45.0163C55.4112 45.3153 55.5 45.6548 55.5 46.0005C55.5 46.3462 55.4112 46.6858 55.2425 46.9848C55.0738 47.2837 54.8313 47.5315 54.5396 47.7028Z" fill="white"/>
</g>
<defs>
<clipPath id="clip0_2_125">
<rect width="19" height="23" fill="white" transform="translate(36.7998 34.8008)"/>
</clipPath>
</defs>
</svg>
